<?xml version="1.0" encoding="UTF-8"?>
<svg width="118px" height="22px" viewBox="0 0 118 22" version="1.1" xmlns="http://www.w3.org/2000/svg" xmlns:xlink="http://www.w3.org/1999/xlink">
    <!-- Generator: Sketch 59.1 (86144) - https://sketch.com -->
    <title>logo_ww-lettering</title>
    <desc>Created with Sketch.</desc>
    <g id="Page-1" stroke="none" stroke-width="1" fill="none" fill-rule="evenodd">
        <g id="IceBreakers" transform="translate(-1280.000000, -987.000000)" fill="#FCAB00" fill-rule="nonzero">
            <g id="Footer" transform="translate(0.000000, 973.000000)">
                <g id="logo_ww-lettering" transform="translate(1280.000000, 14.000000)">
                    <path d="M8.6519194,7.66097616 C8.6519194,7.00572713 8.59178856,6.29829984 8.4736744,5.53924354 C8.98210217,5.47058794 9.53348056,5.43708401 10.1278095,5.43708401 C10.4155786,5.43708401 10.56,5.56505805 10.56,5.82485083 L10.56,15.7365223 C10.56,16.5993858 10.2926325,17.2716615 9.75897123,17.7544476 C9.22423621,18.2372338 8.51984629,18.48 7.64687526,18.48 C6.77336735,18.48 6.10763298,18.2454725 5.64967216,17.7791636 C5.19171134,18.2454725 4.53403021,18.48 3.67770254,18.48 C2.82137487,18.48 2.1465135,18.2537111 1.65526596,17.8060766 C1.16294466,17.3578929 0.917589331,16.7031931 0.917589331,15.8392311 L0.917589331,7.68788915 C0.917589331,7.32648608 0.853700307,7.0666933 0.726996024,6.91180627 C0.599217976,6.75691924 0.357620827,6.67837723 0.00166769386,6.67837723 C-0.0160494304,6.24722007 0.107433557,5.90613906 0.370506008,5.65513419 C0.633041577,5.40522781 1.00187989,5.28 1.47702095,5.28 C1.95162513,5.28 2.29522996,5.41950818 2.50729857,5.69467982 C2.71990406,5.9704007 2.82566993,6.42737236 2.82566993,7.0666933 L2.82566993,15.8392311 C2.82566993,16.133077 2.91855061,16.3796879 3.10538574,16.5774161 C3.29168398,16.7756934 3.52093284,16.8745575 3.79259541,16.8745575 C4.06318421,16.8745575 4.29672813,16.7938185 4.49161649,16.6279466 C4.68704174,16.4659194 4.78475437,16.2528124 4.78475437,15.9952166 L4.78475437,7.66097616 C4.78475437,7.00572713 4.72462352,6.29829984 4.60597248,5.53924354 C5.11547402,5.47058794 5.6668524,5.43708401 6.26010763,5.43708401 C6.54841356,5.43708401 6.69283496,5.56505805 6.69283496,5.82485083 L6.69283496,15.9952166 C6.69283496,16.2528124 6.78195747,16.4659194 6.96020248,16.6279466 C7.1379106,16.7938185 7.37091763,16.8745575 7.65922356,16.8745575 C7.94752949,16.8745575 8.18483158,16.7756934 8.37220359,16.5774161 C8.55850184,16.3796879 8.6519194,16.133077 8.6519194,15.8392311 L8.6519194,7.66097616 Z" id="Shape"></path>
                    <path d="M16.4266667,8.04940746 C16.4266667,7.70391811 16.3203142,7.43312916 16.1070467,7.23484354 C15.8937791,7.03655792 15.6264913,6.93714048 15.3068713,6.93714048 C14.6484991,6.93714048 14.3204385,7.20408455 14.3204385,7.73907124 L14.3204385,11.4400366 L15.6000438,10.5068309 C16.1509382,10.1108089 16.4266667,9.29185087 16.4266667,8.04940746 Z M12.32,15.918765 L12.32,7.81706724 C12.32,6.1253229 13.346948,5.28 15.3997186,5.28 C17.4536147,5.28 18.48,6.22913449 18.48,8.12685419 C18.48,8.88594208 18.3370713,9.58625832 18.0534649,10.2234088 C17.768733,10.8622071 17.377086,11.3455626 16.8802119,11.6718276 L14.3204385,13.3811485 L14.3204385,15.7364081 C14.3204385,16.4619907 14.6710076,16.821761 15.3738339,16.821761 C16.0755348,16.821761 16.4266667,16.4175 16.4266667,15.6073302 L16.4266667,15.0102763 L16.3467617,13.7952963 C16.5774733,13.7442144 16.8132493,13.716751 17.0529643,13.716751 C17.293242,13.716751 17.5200146,13.7519041 17.7332822,13.8211119 C18.16038,13.9243742 18.3736476,14.1226598 18.3736476,14.4154194 L18.3736476,16.2801831 C18.3736476,16.9700632 18.0934174,17.5094441 17.532957,17.897227 C16.973622,18.2844607 16.2308432,18.48 15.3068713,18.48 C13.3154362,18.48 12.32,17.6253395 12.32,15.918765 Z" id="Shape"></path>
                    <path d="M19.6241186,2.01098703 C19.6241186,1.61045389 19.5362852,1.07955331 19.36,0.417175793 C19.9463804,0.139243516 20.5723476,0 21.2366645,0 C21.6275848,0 21.8230449,0.12870317 21.8230449,0.391657061 L21.8230449,16.0479539 C21.8230449,16.414647 21.8954146,16.6759366 22.0420097,16.8323775 C22.1892233,16.9893732 22.4675684,17.0681484 22.8782821,17.0681484 C22.8968385,17.5213833 22.7650884,17.8692147 22.481795,18.1121974 C22.1991201,18.3573991 21.783458,18.48 21.2366645,18.48 C20.6892525,18.48 20.2834872,18.3318804 20.0199872,18.0350865 C19.7558686,17.7382925 19.6241186,17.2506628 19.6241186,16.5716427 L19.6241186,2.01098703 Z" id="Shape"></path>
                    <path d="M24.0241573,2.01098703 C24.0241573,1.61045389 23.9363111,1.07955331 23.76,0.417175793 C24.3458478,0.139243516 24.9712883,0 25.6363214,0 C26.0266804,0 26.2227878,0.12870317 26.2227878,0.391657061 L26.2227878,16.0479539 C26.2227878,16.414647 26.2957868,16.6759366 26.4424034,16.8323775 C26.58902,16.9893732 26.867406,17.0681484 27.2781799,17.0681484 C27.2973576,17.5213833 27.1649696,17.8692147 26.8816346,18.1121974 C26.5982995,18.3573991 26.1831951,18.48 25.6363214,18.48 C25.0882104,18.48 24.6830041,18.3318804 24.4194654,18.0350865 C24.1559267,17.7382925 24.0241573,17.2506628 24.0241573,16.5716427 L24.0241573,2.01098703 Z" id="Shape"></path>
                    <path d="M30.3523276,16.7823002 L31.3702727,16.7823002 C31.6660717,16.7823002 31.9051346,16.6900155 32.088563,16.5037581 C32.2714406,16.3180634 32.3617777,16.0755348 32.3617777,15.7739216 L32.3617777,7.95392345 C32.3617777,7.35294784 32.1012322,7.05189732 31.5790396,7.05189732 C31.0573978,7.05189732 30.6481266,7.32537499 30.3523276,7.87514388 L30.3523276,16.7823002 Z M28.3946562,2.03982826 C28.3946562,1.51087969 28.3164374,0.970114187 28.16,0.423158856 C28.6810909,0.141240523 29.2385371,0 29.830135,0 C30.1788143,0 30.3523276,0.130549009 30.3523276,0.397274139 L30.3523276,5.91128163 C30.8915962,5.45267196 31.4484915,5.22196035 32.0230135,5.22196035 C33.5543378,5.22196035 34.32,6.12398648 34.32,7.92747602 L34.32,15.6681319 C34.32,16.5532767 34.0506412,17.2409098 33.5108218,17.7372212 C32.9715533,18.2312816 32.2405938,18.48 31.3184941,18.48 L28.3946562,18.48 L28.3946562,2.03982826 Z" id="Shape"></path>
                    <path d="M39.3064791,8.04940746 C39.3064791,7.70391811 39.2006797,7.43312916 38.9873927,7.23484354 C38.7735428,7.03655792 38.5067933,6.93714048 38.1865814,6.93714048 C37.5287119,6.93714048 37.2000585,7.20408455 37.2000585,7.73907124 L37.2000585,11.4400366 L38.4797807,10.5068309 C39.0312881,10.1108089 39.3064791,9.29185087 39.3064791,8.04940746 Z M35.2,15.918765 L35.2,7.81706724 C35.2,6.1253229 36.2270418,5.28 38.2805628,5.28 C40.3335209,5.28 41.36,6.22913449 41.36,8.12685419 C41.36,8.88594208 41.217621,9.58625832 40.9334259,10.2234088 C40.6492308,10.8622071 40.257548,11.3455626 39.7606285,11.6718276 L37.2000585,13.3811485 L37.2000585,15.7364081 C37.2000585,16.4619907 37.5512224,16.821761 38.2535502,16.821761 C38.9553152,16.821761 39.3064791,16.4175 39.3064791,15.6073302 L39.3064791,15.0102763 L39.2265668,13.7952963 C39.4578622,13.7442144 39.693097,13.716751 39.9333967,13.716751 C40.1731336,13.716751 40.3999269,13.7519041 40.6137767,13.8211119 C41.0403508,13.9243742 41.2542006,14.1226598 41.2542006,14.4154194 L41.2542006,16.2801831 C41.2542006,16.9700632 40.9739448,17.5094441 40.4134332,17.897227 C39.8540471,18.2844607 39.1106377,18.48 38.1865814,18.48 C36.1955271,18.48 35.2,17.6253395 35.2,15.918765 Z" id="Shape"></path>
                    <path d="M44.0107705,2.987931 C43.3336525,2.987931 42.9953427,2.49059153 42.9953427,1.49368735 C42.9953427,0.498452091 43.3336525,0 44.0107705,0 C44.6878884,0 45.0266964,0.498452091 45.0266964,1.49368735 C45.0266964,2.49059153 44.6878884,2.987931 44.0107705,2.987931 Z M42.5469203,5.37338029 L44.9081136,5.37338029 L44.9081136,16.0411451 C44.9081136,16.4088648 44.9669068,16.6708859 45.0849914,16.8277648 C45.2030759,16.9852 45.4272872,17.0641958 45.7586215,17.0641958 C45.773569,17.5186995 45.6669441,17.8675047 45.4392451,18.1111677 C45.2115461,18.3570559 44.876724,18.48 44.4362735,18.48 C43.9953248,18.48 43.6684746,18.3309094 43.4562213,18.0338409 C43.2439681,17.736216 43.1373432,17.2472212 43.1373432,16.5663 L43.1373432,6.94550709 L42.4054181,7.07735212 C42.2953054,6.62173575 42.24,6.22508805 42.24,5.88407116 C42.24,5.54361058 42.3421407,5.37338029 42.5469203,5.37338029 Z" id="Shape"></path>
                    <path d="M49.5806186,16.099474 C49.5806186,16.9431491 49.6426365,17.6506059 49.7661136,18.2212949 C49.2370058,18.2888549 48.6626416,18.3251065 48.045256,18.3251065 C47.7446646,18.3251065 47.5949276,18.1943808 47.5949276,17.9373236 L47.5949276,7.68798935 C47.5949276,7.32657124 47.5284399,7.06621838 47.396582,6.9113249 C47.2647241,6.75698069 47.0127414,6.67788615 46.6417513,6.67788615 C46.6238722,6.22913449 46.7428796,5.88419441 46.9993321,5.64251664 C47.2546671,5.40138815 47.6653263,5.28 48.230751,5.28 C48.7950582,5.28 49.200689,5.54639481 49.4482019,6.08193076 C50.0309469,5.54639481 50.6623005,5.28 51.3417041,5.28 C52.0205489,5.28 52.5680945,5.49586218 52.9832235,5.92813582 C53.3977938,6.35876165 53.6050789,6.97064581 53.6050789,7.76488682 L53.6050789,16.0720107 C53.6050789,16.4350766 53.6715666,16.6937816 53.8039832,16.8486751 C53.9358411,17.0041178 54.1878239,17.0821138 54.5582552,17.0821138 C54.5761343,17.5308655 54.4565682,17.8752563 54.2012331,18.1158356 C53.9453394,18.3586119 53.5698795,18.48 53.0754123,18.48 C52.5809451,18.48 52.2155422,18.3333455 51.9769687,18.0394874 C51.7383953,17.7456292 51.6193879,17.2628229 51.6193879,16.5905193 L51.6193879,7.92087883 C51.6193879,7.35128828 51.3187966,7.06621838 50.71929,7.06621838 C50.224264,7.06621838 49.8454519,7.33316245 49.5806186,7.86979694 L49.5806186,16.099474 Z" id="Shape"></path>
                    <path d="M57.4361374,8.02244258 L57.4361374,12.4745168 C57.4361374,12.7689778 57.526091,13.0145451 57.7070381,13.2123174 C57.8874652,13.4106391 58.113649,13.5100746 58.3850696,13.5100746 C58.6554503,13.5100746 58.8811142,13.4106391 59.0625812,13.2123174 C59.2424884,13.0145451 59.3334819,12.7689778 59.3334819,12.4745168 L59.3334819,7.03962412 L58.3725905,7.03962412 C58.0928505,7.03962412 57.8671866,7.12972039 57.694559,7.3104623 C57.5224513,7.49230294 57.4361374,7.7296297 57.4361374,8.02244258 Z M59.1603343,17.9615995 L57.8796657,17.9615995 C57.4361374,17.9615995 57.2146332,18.3637365 57.2146332,19.165813 C57.2146332,19.9695377 57.4361374,20.3689279 57.8796657,20.3689279 L59.1603343,20.3689279 C59.6043825,20.3689279 59.8258867,19.9695377 59.8258867,19.165813 C59.8258867,18.3637365 59.6043825,17.9615995 59.1603343,17.9615995 Z M58.5946147,16.3310767 L59.0870195,16.3310767 C59.9080409,16.3310767 60.5319963,16.5821377 60.9594058,17.0826115 C61.3862953,17.584184 61.6,18.2895719 61.6,19.2053675 C61.6,21.0699208 60.7950975,22 59.1852925,22 L57.9535005,22 C57.1314392,22 56.5074838,21.7472909 56.0805942,21.2369285 C55.6537047,20.7271155 55.44,20.0156846 55.44,19.1009877 C55.44,17.8429361 55.8752089,17.0040519 56.7461467,16.5903782 L56.7461467,14.7796629 C55.9734819,14.34786 55.5881894,13.5792949 55.5881894,12.4745168 L55.5881894,8.12627304 C55.5881894,7.26321669 55.8424513,6.5902415 56.3514949,6.10734746 C56.8605385,5.62445343 57.5505292,5.38218236 58.421467,5.38218236 L59.6782173,5.38218236 L61.1809099,5.28 L61.1809099,12.3712357 C61.1809099,13.1985832 60.9469266,13.8517812 60.47948,14.3264347 C60.0109935,14.8010882 59.3823584,15.0642353 58.5946147,15.1153264 L58.5946147,16.3310767 Z" id="Shape"></path>
                    <path d="M73.7714637,7.66097616 C73.7714637,7.00572713 73.7113354,6.29829984 73.5937631,5.53924354 C74.1016324,5.47058794 74.6529873,5.43708401 75.2478279,5.43708401 C75.5355847,5.43708401 75.68,5.56505805 75.68,5.82485083 L75.68,15.7365223 C75.68,16.5993858 75.4115701,17.2716615 74.8779316,17.7544476 C74.3432193,18.2372338 73.6393962,18.48 72.7664623,18.48 C71.8929915,18.48 71.2272854,18.2454725 70.7688072,17.7791636 C70.3114027,18.2454725 69.6542864,18.48 68.7974583,18.48 C67.941167,18.48 67.2668712,18.2537111 66.7751077,17.8060766 C66.2828073,17.3578929 66.0379993,16.7031931 66.0379993,15.8392311 L66.0379993,7.68788915 C66.0379993,7.32648608 65.9730393,7.0666933 65.8468772,6.91180627 C65.7191046,6.75691924 65.4775177,6.67837723 65.1215797,6.67837723 C65.1044002,6.24722007 65.2273411,5.90613906 65.4904024,5.65513419 C65.7529268,5.40522781 66.1212125,5.28 66.5974071,5.28 C67.0719911,5.28 67.4155813,5.41950818 67.6271041,5.69467982 C67.8397005,5.9704007 67.9454619,6.42737236 67.9454619,7.0666933 L67.9454619,15.8392311 C67.9454619,16.133077 68.0383386,16.3796879 68.2251658,16.5774161 C68.411993,16.7756934 68.6406952,16.8745575 68.9123463,16.8745575 C69.1834604,16.8745575 69.4164576,16.7938185 69.6113376,16.6279466 C69.8067546,16.4659194 69.904463,16.2528124 69.904463,15.9952166 L69.904463,7.66097616 C69.904463,7.00572713 69.8448716,6.29829984 69.7262256,5.53924354 C70.2351686,5.47058794 70.7859867,5.43708401 71.3802904,5.43708401 C71.6675104,5.43708401 71.8124625,5.56505805 71.8124625,5.82485083 L71.8124625,15.9952166 C71.8124625,16.2528124 71.9015812,16.4659194 72.0792818,16.6279466 C72.2575192,16.7938185 72.4899795,16.8745575 72.7793469,16.8745575 C73.0671037,16.8745575 73.3043957,16.7756934 73.4917597,16.5774161 C73.6775132,16.3796879 73.7714637,16.133077 73.7714637,15.8392311 L73.7714637,7.66097616 Z" id="Shape"></path>
                    <path d="M80.3489182,13.4840694 C79.7784239,13.8641468 79.4918067,14.497426 79.4918067,15.3866534 C79.4918067,16.2764299 79.7652713,16.7191212 80.3111045,16.7191212 C80.8552936,16.7191212 81.2843974,16.4076994 81.5951277,15.787602 L81.5951277,12.657456 L80.3489182,13.4840694 Z M80.6360835,5.28 C82.5739009,5.28 83.5433576,6.1335264 83.5433576,7.84332543 L83.5433576,16.0721108 C83.5433576,16.4351617 83.6080246,16.6938559 83.7384546,16.848743 C83.8677886,17.0041793 84.114948,17.082172 84.4782888,17.082172 C84.4958256,17.530905 84.3785482,17.8752815 84.1275526,18.1158507 C83.877105,18.3586169 83.5176005,18.48 83.0506829,18.48 C82.3229053,18.48 81.8811969,18.2114193 81.7261058,17.6764549 C81.189041,18.2114193 80.5571678,18.48 79.8293903,18.48 C79.1027087,18.48 78.5223499,18.2037299 78.089958,17.6506404 C77.65647,17.0991986 77.44,16.3566196 77.44,15.4267482 C77.44,14.0107952 78.0378956,12.9419648 79.2325907,12.2164124 L81.5951277,10.8180352 L81.5951277,8.02402696 C81.5951277,7.30012233 81.254256,6.93762077 80.5708685,6.93762077 C79.8852888,6.93762077 79.5444171,7.34131569 79.5444171,8.15364873 L79.5444171,9.00662589 L79.6222367,10.2237523 C79.3964503,10.2764798 79.1673757,10.3011959 78.9333689,10.3011959 C78.7004582,10.3011959 78.479604,10.2671427 78.2713544,10.1968393 C77.8559512,10.0941306 77.6482496,9.89640245 77.6482496,9.60255648 L77.6482496,7.48082387 C77.6482496,6.79152166 77.9206182,6.25106479 78.4664514,5.86274872 C79.0117365,5.47443266 79.7340339,5.28 80.6360835,5.28 Z" id="Shape"></path>
                    <path d="M87.5099086,16.2279411 C87.5099086,17.06496 87.5738076,17.7641432 87.7010298,18.3221558 C87.1547225,18.4266442 86.5635132,18.48 85.9279776,18.48 C85.6171178,18.48 85.4639906,18.3477221 85.4639906,18.0876126 L85.4639906,7.71658105 C85.4639906,7.35087158 85.396062,7.08742737 85.2590534,6.93069474 C85.1226205,6.77451789 84.862995,6.69448421 84.4819039,6.69448421 C84.4629069,6.24040421 84.5860995,5.89136842 84.8503303,5.64682105 C85.1134098,5.40282947 85.4904712,5.28 85.9820903,5.28 C86.7097324,5.28 87.1639332,5.63070316 87.3458437,6.32821895 C87.8006201,5.63070316 88.445942,5.28 89.2823851,5.28 C90.7739365,5.28 91.52,5.97029053 91.52,7.35087158 L91.52,9.96919579 C91.52,10.2648758 91.3018225,10.4655158 90.8648918,10.5688926 C90.6467142,10.6394779 90.4152964,10.6739368 90.1694869,10.6739368 C89.9236774,10.6739368 89.6830489,10.6483705 89.4470257,10.5961263 C89.5011383,10.2131874 89.5287703,9.80079158 89.5287703,9.36560842 L89.5287703,8.03060211 C89.5287703,7.45424842 89.2559045,7.16523789 88.7095972,7.16523789 C88.4551526,7.16523789 88.2185538,7.27973053 88.0009519,7.50704842 C87.7821988,7.73269895 87.6181339,7.98613895 87.5099086,8.26625684 L87.5099086,16.2279411 Z" id="Shape"></path>
                    <path d="M95.4301758,16.2279411 C95.4301758,17.06496 95.4934949,17.7641432 95.6212843,18.3221558 C95.0750134,18.4266442 94.4844191,18.48 93.8477746,18.48 C93.5386624,18.48 93.3838185,18.3477221 93.3838185,18.0876126 L93.3838185,7.71658105 C93.3838185,7.35087158 93.3158944,7.08742737 93.178895,6.93069474 C93.0430468,6.77451789 92.7834386,6.69448421 92.4017972,6.69448421 C92.3833771,6.24040421 92.5065615,5.89136842 92.7707747,5.64682105 C93.0332611,5.40282947 93.4120243,5.28 93.9024593,5.28 C94.6294773,5.28 95.084799,5.63070316 95.2661218,6.32821895 C95.7202923,5.63070316 96.3661468,5.28 97.2036855,5.28 C98.6939862,5.28 99.44,5.97029053 99.44,7.35087158 L99.44,9.96919579 C99.44,10.2648758 99.221837,10.4655158 98.7849354,10.5688926 C98.5673481,10.6394779 98.3347944,10.6739368 98.0890012,10.6739368 C97.8443594,10.6739368 97.6025956,10.6483705 97.3671638,10.5961263 C97.4218485,10.2131874 97.4483273,9.80079158 97.4483273,9.36560842 L97.4483273,8.03060211 C97.4483273,7.45424842 97.1760553,7.16523789 96.6297844,7.16523789 C96.3753569,7.16523789 96.1393494,7.27973053 95.9217621,7.50704842 C95.7024478,7.73269895 95.5395451,7.98613895 95.4301758,8.26625684 L95.4301758,16.2279411 Z" id="Shape"></path>
                    <path d="M101.210977,2.987931 C100.533282,2.987931 100.195431,2.49059153 100.195431,1.49368735 C100.195431,0.498452091 100.533282,0 101.210977,0 C101.887676,0 102.226523,0.498452091 102.226523,1.49368735 C102.226523,2.49059153 101.887676,2.987931 101.210977,2.987931 Z M99.7464578,5.37338029 L102.107428,5.37338029 L102.107428,16.0411451 C102.107428,16.4088648 102.167225,16.6708859 102.285323,16.8277648 C102.40392,16.9852 102.627161,17.0641958 102.958534,17.0641958 C102.973981,17.5186995 102.867344,17.8675047 102.639618,18.1111677 C102.411395,18.3570559 102.076035,18.48 101.636032,18.48 C101.195031,18.48 100.868641,18.3309094 100.655865,18.0338409 C100.443587,17.736216 100.337448,17.2472212 100.337448,16.5663 L100.337448,6.94550709 L99.6049391,7.07735212 C99.4953119,6.62173575 99.44,6.22508805 99.44,5.88407116 C99.44,5.54361058 99.5426509,5.37338029 99.7464578,5.37338029 Z" id="Shape"></path>
                    <path d="M105.87501,7.92131819 L105.87501,15.8392311 C105.87501,16.133077 105.97407,16.3796879 106.172761,16.5779653 C106.372597,16.7756934 106.621104,16.8745575 106.92,16.8745575 C107.218323,16.8745575 107.46683,16.7756934 107.666667,16.5779653 C107.864785,16.3796879 107.964417,16.133077 107.964417,15.8392311 L107.964417,7.92131819 C107.964417,7.62747223 107.864785,7.38086132 107.666667,7.18258395 C107.46683,6.98485582 107.218323,6.88434403 106.92,6.88434403 C106.621104,6.88434403 106.372597,6.98485582 106.172761,7.18258395 C105.97407,7.38086132 105.87501,7.62747223 105.87501,7.92131819 Z M103.84,15.8392311 L103.84,8.02347772 C103.84,7.1611634 104.12,6.48833853 104.680573,6.00610161 C105.241145,5.52331544 106.001554,5.28 106.960654,5.28 C107.918609,5.28 108.665276,5.50573961 109.198937,5.95337411 C109.732025,6.40155786 110,7.05735614 110,7.92131819 L110,15.7365223 C110,16.5993858 109.714847,17.2716615 109.145112,17.7544476 C108.575378,18.2372338 107.810389,18.48 106.851861,18.48 C105.892761,18.48 105.15182,18.2537111 104.626176,17.8060766 C104.102249,17.3578929 103.84,16.7031931 103.84,15.8392311 Z" id="Shape"></path>
                    <path d="M113.91012,16.2279411 C113.91012,17.06496 113.972865,17.7641432 114.100656,18.3221558 C113.555529,18.4266442 112.964351,18.48 112.327697,18.48 C112.018581,18.48 111.863159,18.3477221 111.863159,18.0876126 L111.863159,7.71658105 C111.863159,7.35087158 111.79581,7.08742737 111.659384,6.93069474 C111.522383,6.77451789 111.263347,6.69448421 110.8817,6.69448421 C110.863855,6.24040421 110.986466,5.89136842 111.250683,5.64682105 C111.512597,5.40282947 111.89079,5.28 112.382383,5.28 C113.108835,5.28 113.564163,5.63070316 113.74664,6.32821895 C114.200241,5.63070316 114.844953,5.28 115.683079,5.28 C117.173976,5.28 117.92,5.97029053 117.92,7.35087158 L117.92,9.96919579 C117.92,10.2648758 117.701258,10.4655158 117.264351,10.5688926 C117.047336,10.6394779 116.814779,10.6739368 116.569558,10.6739368 C116.324337,10.6739368 116.08257,10.6483705 115.847135,10.5961263 C115.900669,10.2131874 115.927724,9.80079158 115.927724,9.36560842 L115.927724,8.03060211 C115.927724,7.45424842 115.655448,7.16523789 115.110897,7.16523789 C114.855315,7.16523789 114.619304,7.27973053 114.400562,7.50704842 C114.181821,7.73269895 114.01834,7.98613895 113.91012,8.26625684 L113.91012,16.2279411 Z" id="Shape"></path>
                </g>
            </g>
        </g>
    </g>
</svg>